<?xml version="1.0" encoding="utf-8"?>
<!-- Generator: Adobe Illustrator 27.1.1, SVG Export Plug-In . SVG Version: 6.00 Build 0)  -->
<svg version="1.1" id="Layer_1" xmlns="http://www.w3.org/2000/svg" xmlns:xlink="http://www.w3.org/1999/xlink" x="0px" y="0px"
	 viewBox="0 0 573 90" style="enable-background:new 0 0 573 90;" xml:space="preserve">
<style type="text/css">
	.st0{fill:#FFFFFF;}
</style>
<path class="st0" d="M96.4,9.1v14.6h10.2L95.2,66.3c0,0-14-56.4-14.2-57.2H66.2C66,9.9,50.8,66.3,50.8,66.3L40.2,23.7h10.7V9.1H8.1
	v14.6h9.5c0,0,16.4,65.5,16.6,66.3h23c0.2-0.8,11-41.7,11-41.7C75,75.6,74.7,73.9,78.6,90h23c0.2-0.8,17.4-66.3,17.4-66.3h9.4V9.1
	H96.4L96.4,9.1z"/>
<path class="st0" d="M532.4,55.2V40.9l9.9,16h0.9V39.5l1.7-1.7h-5l1.7,1.7v12.1L533,37.8h-3.9l1.7,1.7v15.8l-1.7,1.7h5L532.4,55.2
	L532.4,55.2z M517.6,55.8c-3.8,0-5.1-4.6-5.1-8.5s1.3-8.5,5.1-8.5c3.9,0,5.2,4.6,5.2,8.5S521.6,55.8,517.6,55.8 M510.1,47.3
	c0,4.9,2.7,9.9,7.6,9.9s7.7-5.1,7.7-9.9s-2.7-9.9-7.7-9.9C512.8,37.3,510.1,42.4,510.1,47.3 M501.4,55.3V39.2h3.7l2,2v-3.4h-13.4
	v3.4l2-2h3.6v16.1l-1.5,1.5h5.1L501.4,55.3L501.4,55.3z M487.3,48.1v6.2c-0.5,0.5-1.3,1.3-3.1,1.3c-4.3,0-6.4-4.3-6.4-8.4
	s2.7-8.4,6.4-8.4c0.9,0,1.7,0.2,2.4,0.9l2.1,2v-3.3c-1.2-0.6-2.3-1.1-4.4-1.1c-5.2,0-8.9,4.6-8.9,9.8c0,5.1,3.7,9.8,8.9,9.8
	c3,0,4.3-0.7,5.2-1.4V48l1.5-1.5H486L487.3,48.1L487.3,48.1z M459,55.2V40.9l10.1,16h0.8V39.5l1.7-1.7h-5l1.7,1.7v12.1l-8.6-13.7
	h-3.9l1.7,1.7v15.8l-1.7,1.7h5L459,55.2L459,55.2z M445.3,37.8l1.5,1.5v16l-1.5,1.5h5.1l-1.5-1.5V39.2l1.5-1.5L445.3,37.8
	L445.3,37.8z M428.3,47.3h8.1v8.1l-1.5,1.5h5.1l-1.5-1.5v-16l1.5-1.5h-5.1l1.5,1.5v6.5h-8.1v-6.5l1.5-1.5h-5.1l1.5,1.5v16l-1.5,1.5
	h5.1l-1.5-1.5V47.3L428.3,47.3z M419.7,51.6c0-1.9-0.8-3.1-1.8-3.7L414,45c-1.4-1.1-2.1-2.3-2.1-3.3c0-2,1.7-2.7,2.7-2.7
	c0.6,0,0.9,0.2,1.2,0.2l1.7,1.8l1.8-2.6l-3.8-0.7c-0.2-0.1-0.5-0.1-0.9-0.1c-3.3,0-4.9,2.8-4.9,4.7c0,1.4,0.7,3.1,2.5,4.4l3.9,2.8
	c1.1,0.7,1.3,1.9,1.3,2.8c0,1.7-0.9,3.4-3.2,3.4c-0.5,0-0.9-0.1-1.3-0.2l-1.8-2.1l-1.7,3l3.7,0.7c0,0,0.6,0.1,1.2,0.1
	C416.7,57.1,419.7,55.2,419.7,51.6 M398.4,42.1L401,50h-5.3L398.4,42.1L398.4,42.1z M393.8,55.3l1.4-4h6.3l1.3,4l-1.5,1.5h5.4
	l-1.5-1.5l-5.9-17.5h-0.9l-6,17.5l-1.5,1.5h4.6L393.8,55.3L393.8,55.3z M373.5,56.9l4.4-13.9l4.3,13.9h0.9l5.6-17.5l1.5-1.5h-4.6
	l1.5,1.5l-4,13.1l-3.9-13.1l1.5-1.5h-5.4l1.5,1.5l0.4,1.3l-3.7,12l-3.9-13.1l1.5-1.5h-5.4l1.5,1.5l5.3,17.5L373.5,56.9L373.5,56.9
	L373.5,56.9z M345.2,45.4l-0.7,0.7l0.1,0.2h2.3c-0.4,2.4-0.7,4.5-1.2,7.9c-0.7,5-1.3,6.8-1.9,7.2c-0.1,0.1-0.5,0.2-0.7,0.2
	c-0.4,0-0.8-0.2-1.2-0.4c-0.4-0.1-0.6,0-0.7,0.2c-0.2,0.2-0.5,0.6-0.5,0.9c0,0.6,0.7,0.8,1.2,0.8s1.8-0.5,3-1.9
	c0.9-1.1,2.1-3.8,3.2-9.8c0.2-1.2,0.4-2.3,0.8-5.2l2.7-0.2l0.6-0.7H349c0.8-5,1.4-6.5,2.6-6.5c0.8,0,1.4,0.4,2,0.9
	c0.2,0.2,0.5,0.2,0.7,0c0.2-0.2,0.6-0.6,0.6-0.9c0-0.6-0.7-1.2-1.7-1.2c-1.5,0-3.2,0.9-4.3,2.3s-1.8,3.3-2.1,5.4L345.2,45.4
	L345.2,45.4L345.2,45.4z M333.1,52.5c0-4,2-6.2,2.8-6.5c0.2-0.1,0.6-0.2,0.8-0.2c1.3,0,2.1,1.1,2.1,3.1c0,3.4-1.8,6.6-3,7
	c-0.2,0.1-0.6,0.2-0.8,0.2C333.7,56.1,333.1,54.5,333.1,52.5 M337.6,44.8c-0.7,0-1.8,0.4-2.8,0.9c-1.9,1.1-3.9,3.6-3.9,7.3
	c0,1.9,0.8,4,3.4,4c1.2,0,2.8-0.8,4-1.8c1.8-1.7,2.8-4.4,2.8-6.8C341.2,46.2,340,44.8,337.6,44.8 M306.5,39.4l4.9,8.6v7.3l-1.5,1.5
	h5.1l-1.5-1.5V48l4.9-8.6l1.5-1.5H315l1.5,1.5l-4,7.1l-3.8-7.1l1.5-1.5h-5.4L306.5,39.4L306.5,39.4z M296.5,55.3V39.2h3.7l2,2v-3.4
	h-13.4v3.4l2-2h3.6v16.1l-1.5,1.5h5.1L296.5,55.3L296.5,55.3z M279.1,37.8l1.5,1.5v16l-1.5,1.5h5.1l-1.5-1.5v-16l1.5-1.5H279.1
	L279.1,37.8z M273.7,51.6c0-1.9-0.8-3.1-1.8-3.7L268,45c-1.4-0.9-2.1-2.3-2.1-3.3c0-2,1.7-2.7,2.7-2.7c0.6,0,0.9,0.2,1.2,0.2
	l1.7,1.8l1.8-2.6l-3.8-0.7c-0.2-0.1-0.5-0.1-0.9-0.1c-3.3,0-4.9,2.8-4.9,4.7c0,1.4,0.7,3.1,2.5,4.4l3.9,2.8c1.1,0.7,1.3,1.9,1.3,2.8
	c0,1.7-0.9,3.4-3.2,3.4c-0.5,0-0.9-0.1-1.3-0.2l-1.8-2.1l-1.7,3l3.7,0.7c0,0,0.6,0.1,1.2,0.1C270.6,57.1,273.7,55.2,273.7,51.6
	 M249.2,39.2h2.4c2,0,3.7,1.8,3.7,3.8c0,2-1.7,3.6-3.7,3.6h-2.4V39.2L249.2,39.2z M249.2,55.3V48h2.8l4.6,8.9h3.2l-1.5-1.5l-4.3-7.8
	c2.1-0.6,3.6-2.6,3.6-4.5c0-3.2-3-5.3-6.2-5.3h-5.9l1.5,1.5v16.1l-1.5,1.5h5.1L249.2,55.3L249.2,55.3z M240.5,56.9v-3.4l-2,2h-5.8
	v-8.1h4.3l1.5,1.5v-4.5L237,46h-4.3v-6.8h5.8l2,2v-3.4h-11.4l1.5,1.5v16l-1.5,1.5H240.5L240.5,56.9z M215.8,37.8h-5.4l1.5,1.5
	l5.3,17.5h0.9l5.6-17.5l1.5-1.5h-4.5l1.5,1.5l-4,13.1l-3.9-13.1L215.8,37.8L215.8,37.8z M201,37.8l1.5,1.5v16l-1.5,1.5h5.1l-1.5-1.5
	v-16l1.5-1.5C206.1,37.8,201,37.8,201,37.8z M183.2,55.2V40.9l10.2,16h0.7V39.5l1.7-1.7h-5l1.7,1.7v12.1l-8.6-13.7h-3.9l1.7,1.7
	v15.8l-1.7,1.7h5L183.2,55.2L183.2,55.2z M161.8,51.8c0,3.1,2.6,5.6,5.9,5.6c3.1,0,6.2-2.3,6.2-5.6V39.5l1.7-1.7h-5l1.7,1.7v12.3
	c0,2.3-1.8,3.9-3.9,3.9c-2.3,0-4.3-1.7-4.3-3.9V39.5l1.7-1.7h-5.6l1.7,1.7V51.8L161.8,51.8z"/>
</svg>
