<?xml version="1.0" encoding="utf-8"?>
<!-- Generator: Adobe Illustrator 27.1.1, SVG Export Plug-In . SVG Version: 6.00 Build 0)  -->
<svg version="1.1" id="Layer_1" xmlns="http://www.w3.org/2000/svg" xmlns:xlink="http://www.w3.org/1999/xlink" x="0px" y="0px"
	 viewBox="0 0 330 24" style="enable-background:new 0 0 330 24;" xml:space="preserve">
<style type="text/css">
	.st0{fill:#FFFFFF;}
</style>
<path class="st0" d="M316.9,16.1V4l8.4,13.5h0.8V2.8l1.4-1.4h-4.2l1.4,1.4V13l-7.3-11.6h-3.3l1.4,1.4v13.3l-1.4,1.4h4.2L316.9,16.1
	L316.9,16.1z M304.4,16.6c-3.2,0-4.3-3.9-4.3-7.2s1.1-7.2,4.3-7.2c3.3,0,4.4,3.9,4.4,7.2S307.7,16.6,304.4,16.6 M298,9.4
	c0,4.1,2.3,8.4,6.4,8.4s6.5-4.3,6.5-8.4S308.6,1,304.4,1C300.3,1,298,5.3,298,9.4 M290.7,16.2V2.6h3.1l1.7,1.7V1.4h-11.3v2.9
	l1.7-1.7h3v13.6l-1.3,1.3h4.3L290.7,16.2L290.7,16.2z M278.8,10.1v5.2c-0.4,0.4-1.1,1.1-2.6,1.1c-3.6,0-5.4-3.6-5.4-7.1
	s2.3-7.1,5.4-7.1c0.8,0,1.4,0.2,2,0.8l1.8,1.7V1.9c-1-0.5-1.9-0.9-3.7-0.9c-4.4,0-7.5,3.9-7.5,8.3c0,4.3,3.1,8.3,7.5,8.3
	c2.5,0,3.6-0.6,4.4-1.2V10l1.3-1.3h-4.3L278.8,10.1L278.8,10.1z M254.9,16.1V4l8.5,13.5h0.7V2.8l1.4-1.4h-4.2l1.4,1.4V13l-7.3-11.6
	h-3.3l1.4,1.4v13.3l-1.4,1.4h4.2L254.9,16.1L254.9,16.1z M243.3,1.4l1.3,1.3v13.5l-1.3,1.3h4.3l-1.3-1.3V2.6l1.3-1.3L243.3,1.4
	L243.3,1.4z M229,9.4h6.8v6.8l-1.3,1.3h4.3l-1.3-1.3V2.7l1.3-1.3h-4.3l1.3,1.3v5.5H229V2.7l1.3-1.3H226l1.3,1.3v13.5l-1.3,1.3h4.3
	l-1.3-1.3V9.4L229,9.4z M221.7,13c0-1.6-0.7-2.6-1.5-3.1l-3.3-2.4c-1.2-0.9-1.8-1.9-1.8-2.8c0-1.7,1.4-2.3,2.3-2.3
	c0.5,0,0.8,0.2,1,0.2l1.4,1.5l1.5-2.2l-3.2-0.6c-0.2-0.1-0.4-0.1-0.8-0.1c-2.8,0-4.1,2.4-4.1,4c0,1.2,0.6,2.6,2.1,3.7l3.3,2.4
	c0.9,0.6,1.1,1.6,1.1,2.4c0,1.4-0.8,2.9-2.7,2.9c-0.4,0-0.8-0.1-1.1-0.2l-1.5-1.8l-1.4,2.5l3.1,0.6c0,0,0.5,0.1,1,0.1
	C219.2,17.7,221.7,16.1,221.7,13 M203.7,5l2.2,6.7h-4.5L203.7,5L203.7,5z M199.8,16.2l1.2-3.4h5.3l1.1,3.4l-1.3,1.3h4.6l-1.3-1.3
	l-5-14.8h-0.8l-5.1,14.8l-1.3,1.3h3.9L199.8,16.2L199.8,16.2z M182.7,17.5l3.7-11.7l3.6,11.7h0.8l4.7-14.8l1.3-1.3h-3.9l1.3,1.3
	l-3.4,11.1l-3.3-11.1l1.3-1.3h-4.6l1.3,1.3l0.3,1.1l-3.1,10.1l-3.3-11.1l1.3-1.3h-4.6l1.3,1.3l4.5,14.8L182.7,17.5L182.7,17.5
	L182.7,17.5z M158.8,7.8l-0.6,0.6l0.1,0.2h1.9c-0.3,2-0.6,3.8-1,6.7c-0.6,4.2-1.1,5.7-1.6,6.1c-0.1,0.1-0.4,0.2-0.6,0.2
	c-0.3,0-0.7-0.2-1-0.3c-0.3-0.1-0.5,0-0.6,0.2c-0.2,0.2-0.4,0.5-0.4,0.8c0,0.5,0.6,0.7,1,0.7s1.5-0.4,2.5-1.6
	c0.8-0.9,1.8-3.2,2.7-8.3c0.2-1,0.3-1.9,0.7-4.4l2.3-0.2l0.5-0.6H162c0.7-4.2,1.2-5.5,2.2-5.5c0.7,0,1.2,0.3,1.7,0.8
	c0.2,0.2,0.4,0.2,0.6,0c0.2-0.2,0.5-0.5,0.5-0.8c0-0.5-0.6-1-1.4-1c-1.3,0-2.7,0.8-3.6,1.9c-0.9,1.1-1.5,2.8-1.8,4.6L158.8,7.8
	L158.8,7.8L158.8,7.8z M148.6,13.8c0-3.4,1.7-5.2,2.4-5.5c0.2-0.1,0.5-0.2,0.7-0.2c1.1,0,1.8,0.9,1.8,2.6c0,2.9-1.5,5.6-2.5,5.9
	c-0.2,0.1-0.5,0.2-0.7,0.2C149.1,16.8,148.6,15.5,148.6,13.8 M152.4,7.3c-0.6,0-1.5,0.3-2.4,0.8c-1.6,0.9-3.3,3-3.3,6.2
	c0,1.6,0.7,3.4,2.9,3.4c1,0,2.4-0.7,3.4-1.5c1.5-1.4,2.4-3.7,2.4-5.7C155.4,8.5,154.4,7.3,152.4,7.3 M126.1,2.7l4.1,7.3v6.2
	l-1.3,1.3h4.3l-1.3-1.3V10l4.1-7.3l1.3-1.3h-4l1.3,1.3l-3.4,6l-3.2-6l1.3-1.3h-4.6L126.1,2.7L126.1,2.7z M117.7,16.2V2.6h3.1
	l1.7,1.7V1.4h-11.3v2.9l1.7-1.7h3v13.6l-1.3,1.3h4.3L117.7,16.2L117.7,16.2z M103,1.4l1.3,1.3v13.5l-1.3,1.3h4.3l-1.3-1.3V2.7
	l1.3-1.3L103,1.4L103,1.4z M98.4,13c0-1.6-0.7-2.6-1.5-3.1l-3.3-2.4c-1.2-0.8-1.8-1.9-1.8-2.8c0-1.7,1.4-2.3,2.3-2.3
	c0.5,0,0.8,0.2,1,0.2l1.4,1.5L98,1.9l-3.2-0.6c-0.2-0.1-0.4-0.1-0.8-0.1c-2.8,0-4.1,2.4-4.1,4c0,1.2,0.6,2.6,2.1,3.7l3.3,2.4
	c0.9,0.6,1.1,1.6,1.1,2.4c0,1.4-0.8,2.9-2.7,2.9c-0.4,0-0.8-0.1-1.1-0.2l-1.5-1.8l-1.4,2.5l3.1,0.6c0,0,0.5,0.1,1,0.1
	C95.8,17.7,98.4,16.1,98.4,13 M77.7,2.6h2c1.7,0,3.1,1.5,3.1,3.2s-1.4,3-3.1,3h-2V2.6L77.7,2.6z M77.7,16.2V10h2.4l3.9,7.5h2.7
	l-1.3-1.3l-3.6-6.6c1.8-0.5,3-2.2,3-3.8c0-2.7-2.5-4.5-5.2-4.5h-5l1.3,1.3v13.6l-1.3,1.3h4.3L77.7,16.2L77.7,16.2z M70.4,17.5v-2.9
	l-1.7,1.7h-4.9V9.5h3.6l1.3,1.3V7l-1.3,1.3h-3.6V2.6h4.9l1.7,1.7V1.4h-9.6l1.3,1.3v13.5l-1.3,1.3H70.4L70.4,17.5z M49.5,1.4h-4.6
	l1.3,1.3l4.5,14.8h0.8l4.7-14.8l1.3-1.3h-3.8L55,2.7l-3.4,11.1L48.3,2.7L49.5,1.4L49.5,1.4z M37,1.4l1.3,1.3v13.5L37,17.5h4.3
	L40,16.2V2.7l1.3-1.3C41.3,1.4,37,1.4,37,1.4z M22,16.1V4l8.6,13.5h0.6V2.8l1.4-1.4h-4.2l1.4,1.4V13L22.5,1.4h-3.3l1.4,1.4v13.3
	l-1.4,1.4h4.2L22,16.1L22,16.1z M3.9,13.2c0,2.6,2.2,4.7,5,4.7c2.6,0,5.2-1.9,5.2-4.7V2.8l1.4-1.4h-4.2l1.4,1.4v10.4
	c0,1.9-1.5,3.3-3.3,3.3c-1.9,0-3.6-1.4-3.6-3.3V2.8l1.4-1.4H2.5l1.4,1.4V13.2L3.9,13.2z"/>
</svg>
